<?xml version="1.0" encoding="utf-8"?>
<!-- Generator: Adobe Illustrator 26.0.1, SVG Export Plug-In . SVG Version: 6.00 Build 0)  -->
<svg version="1.1" id="Layer_1" xmlns="http://www.w3.org/2000/svg" xmlns:xlink="http://www.w3.org/1999/xlink" x="0px" y="0px"
	 viewBox="0 0 1080 1080" style="enable-background:new 0 0 1080 1080;" xml:space="preserve">
<style type="text/css">
	.st0{fill:#FFFFFF;}
</style>
<g>
	<g>
		<g>
			<path class="st0" d="M869.64,391.4c-8.03-4.53-16.34-8.66-24.95-12.27c1.33,8.79,2.27,17.68,2.68,26.75v0.06
				c0.23,4.42,0.35,8.84,0.35,13.26c0,2.62-0.06,5.23-0.18,7.85c-0.18,8.79-0.88,17.45-1.98,25.99c-0.81,6.81-1.98,13.55-3.31,20.24
				c-1.74,8.38-3.84,16.57-6.34,24.66c-6.51,21.35-15.71,41.52-27.05,60.19c-4.08,6.69-8.43,13.14-13.09,19.43
				c-3.61,5-7.44,9.89-11.52,14.6c-5,5.93-10.3,11.63-15.82,17.1c-4.42,4.42-9.02,8.72-13.79,12.74
				c-5.93,5.18-12.16,10.06-18.55,14.6c5.93,5.35,12.15,10.41,18.55,15.3c6.4-4.83,12.62-9.89,18.61-15.24
				c4.77-4.19,9.37-8.55,13.79-13.09c5.52-5.52,10.76-11.29,15.82-17.27c4.01-4.77,7.85-9.65,11.58-14.72
				c4.6-6.22,8.9-12.62,13.03-19.25c10.7-17.27,19.72-35.82,26.64-55.31c3.09-8.55,5.76-17.33,8.03-26.29
				c1.8-7.1,3.31-14.31,4.53-21.57c1.57-8.95,2.73-18.08,3.43-27.34c0.58-7.33,0.88-14.77,0.88-22.22v-0.41
				c0-9.36-0.47-18.67-1.33-27.8L869.64,391.4z"/>
			<path class="st0" d="M725.02,592.17c-4.08-4.71-7.91-9.6-11.52-14.6c-4.65-6.28-9.02-12.74-13.09-19.43
				c-11.34-18.67-20.53-38.85-27.05-60.19c-2.5-8.09-4.6-16.28-6.34-24.66c-1.33-6.69-2.5-13.43-3.31-20.24
				c-1.1-8.55-1.8-17.22-1.98-25.99c-0.11-2.62-0.18-5.23-0.18-7.85c0-4.42,0.11-8.84,0.35-13.26v-0.06
				c6.22-3.09,12.62-5.88,19.2-8.32c7.85-2.91,15.94-5.41,24.2-7.44c6.34-1.51,12.8-2.73,19.37-3.67
				c7.86-1.17,15.82-1.87,23.97-2.09c1.98-0.06,4.01-0.06,5.99-0.06s4.01,0,5.99,0.06c8.14,0.23,16.11,0.93,23.96,2.09
				c6.58,0.93,13.03,2.15,19.38,3.67c8.25,2.03,16.34,4.53,24.2,7.44c-0.75-8.72-1.98-17.33-3.61-25.83
				c-8.2-2.62-16.58-4.71-25.19-6.4c-6.58-1.28-13.27-2.27-20.06-2.97c-8.09-0.88-16.23-1.33-24.55-1.33h-0.23
				c-8.32,0-16.47,0.47-24.55,1.33c-6.81,0.7-13.5,1.69-20.06,2.97c-8.61,1.69-16.99,3.78-25.19,6.4
				c-6.87,2.15-13.55,4.6-20.13,7.39h-0.06c-8.61,3.61-16.86,7.73-24.9,12.27c-0.88,9.13-1.33,18.44-1.33,27.8v0.41
				c0,7.44,0.29,14.88,0.88,22.22c0.7,9.24,1.87,18.38,3.43,27.34c1.22,7.28,2.73,14.42,4.6,21.52c2.21,8.95,4.89,17.74,7.97,26.29
				c6.92,19.48,15.94,38.03,26.7,55.31c4.08,6.63,8.38,13.03,13.03,19.25c3.67,5.05,7.5,9.94,11.58,14.72
				c5,5.99,10.3,11.81,15.76,17.33c6.46-4.42,12.68-9.24,18.61-14.31c-5.52-5.47-10.82-11.16-15.82-17.1H725.02z"/>
			<path class="st0" d="M754.63,530.7c4.83-7.56,9.19-15.47,13.03-23.67c5.47-11.52,9.83-23.67,13.09-36.23
				c1.87-7.44,3.38-15.06,4.42-22.86c-7.5-1.57-15.19-2.56-23.03-2.97c-2.5-0.11-5-0.18-7.5-0.18s-5,0.06-7.5,0.18
				c-7.85,0.41-15.53,1.4-23.03,2.97c1.04,7.8,2.56,15.42,4.42,22.86c3.26,12.56,7.62,24.72,13.09,36.23
				C745.44,515.23,749.81,523.14,754.63,530.7z"/>
			<path class="st0" d="M705.95,452.99c-7.62,2.56-15.01,5.82-21.99,9.6c1.4,8.09,3.2,16,5.36,23.78
				c5.82,20.7,14.25,40.37,24.9,58.51c4.01,6.92,8.38,13.61,13.03,20.01c3.67,5.12,7.57,10.01,11.58,14.77
				c5,5.93,10.3,11.63,15.82,17.04c5.52-5.41,10.82-11.11,15.82-17.04c4.01-4.77,7.91-9.65,11.58-14.77
				c4.66-6.4,9.02-13.09,13.03-20.01c10.64-18.15,19.08-37.8,24.9-58.51c2.15-7.8,3.95-15.71,5.35-23.78
				c1.17-6.45,2.03-12.91,2.68-19.48v-0.06c0.7-7.85,1.1-15.82,1.1-23.85v-1.22c-7.57-3.2-15.42-5.93-23.44-8.2
				c-6.17-1.69-12.51-3.09-18.91-4.19c-7.68-1.28-15.53-2.15-23.5-2.5c-2.85-0.11-5.7-0.18-8.61-0.18s-5.76,0.06-8.61,0.18
				c-7.97,0.34-15.82,1.22-23.5,2.55c-6.46,1.04-12.74,2.44-18.91,4.13v0.06c-8.09,2.21-15.88,4.94-23.44,8.2v1.17
				c0,8.03,0.41,16,1.1,23.85c7.21-3.54,14.78-6.58,22.63-9.07c5.99-1.87,12.15-3.43,18.44-4.65c7.5-1.51,15.24-2.44,23.15-2.85
				c3.02-0.23,6.05-0.29,9.13-0.29s6.11,0.06,9.13,0.29c7.91,0.41,15.64,1.33,23.15,2.85c6.28,1.22,12.44,2.79,18.44,4.65
				c-0.41,6.4-1.1,12.74-2.03,18.96V453c-1.17,7.85-2.73,15.47-4.71,22.97c-4.48,17.45-11.06,34.08-19.38,49.61
				c-3.95,7.39-8.32,14.54-13.03,21.4c-3.61,5.29-7.5,10.41-11.58,15.42c-4.08-5-7.97-10.12-11.58-15.42
				c-4.71-6.86-9.08-14.02-13.03-21.4c-8.32-15.53-14.89-32.16-19.38-49.61c-1.98-7.5-3.54-15.12-4.71-22.97L705.95,452.99z"/>
		</g>
		<g>
			<rect x="530.97" y="412.91" class="st0" width="34.91" height="184.67"/>
			<path class="st0" d="M263.51,414.13v120.04c0,18.93-15.42,34.34-34.34,34.34c-9.47,0-18.03-3.86-24.26-10.08l-24.7,24.7
				c12.53,12.53,29.84,20.28,48.96,20.28s36.43-7.75,48.96-20.28c12.53-12.53,20.28-29.84,20.28-48.96V414.14h-34.91L263.51,414.13z
				"/>
			<path class="st0" d="M383.64,549.12c-24.19-24.19-24.19-63.56,0-87.75s63.56-24.19,87.75,0l0,0l24.68-24.68l0,0
				c-37.87-37.87-99.24-37.87-137.11,0s-37.87,99.24,0,137.11s99.24,37.87,137.11,0l-24.68-24.68
				C447.2,573.31,407.83,573.31,383.64,549.12L383.64,549.12z"/>
		</g>
	</g>
	<g>
		<path class="st0" d="M868.15,575.28v2.12h5.97v19.54h2.31V577.4h5.92v-2.12h-14.2H868.15z"/>
		<polygon class="st0" points="905.3,575.28 905.3,596.94 902.95,596.94 902.95,579.77 895.73,590.3 895.53,590.3 888.31,579.69 
			888.31,596.94 885.93,596.94 885.93,575.28 888.02,575.28 895.63,586.4 903.23,575.28 		"/>
	</g>
	<g>
		<g>
			<path class="st0" d="M198.44,704.71c-3.29,0-6.35-0.54-9.19-1.63c-2.84-1.08-5.28-2.59-7.33-4.53s-3.56-4.2-4.54-6.79l8.03-3.06
				c1.27,2.67,3.1,4.76,5.5,6.29c2.4,1.52,5.1,2.28,8.1,2.28c1.69,0,3.16-0.24,4.4-0.72c1.24-0.48,2.21-1.14,2.89-1.97
				c0.68-0.83,1.02-1.83,1.02-3c0-1.38-0.46-2.5-1.37-3.38c-0.92-0.88-2.29-1.58-4.12-2.13l-10.07-2.88
				c-4.09-1.13-7.17-2.8-9.26-5.03c-2.09-2.23-3.13-4.89-3.13-7.97c0-2.67,0.75-5.02,2.25-7.07c1.5-2.04,3.58-3.64,6.23-4.78
				c2.65-1.15,5.69-1.72,9.12-1.72c3.15,0,6.03,0.49,8.67,1.47c2.63,0.98,4.9,2.33,6.8,4.06c1.9,1.73,3.32,3.76,4.26,6.1l-7.96,3.13
				c-0.99-2.29-2.53-4.09-4.61-5.38c-2.09-1.29-4.47-1.94-7.15-1.94c-1.6,0-3.01,0.24-4.23,0.72c-1.22,0.48-2.17,1.16-2.85,2.03
				c-0.68,0.88-1.02,1.88-1.02,3c0,1.29,0.47,2.43,1.41,3.41c0.94,0.98,2.37,1.74,4.3,2.28l9.65,2.69c4.18,1.21,7.31,2.88,9.4,5
				c2.09,2.13,3.14,4.75,3.14,7.88c0,2.67-0.77,5.02-2.32,7.07c-1.55,2.04-3.69,3.65-6.41,4.81
				C205.29,704.12,202.1,704.71,198.44,704.71z"/>
			<path class="st0" d="M224.5,666.12v-8.75h9.3v8.75H224.5z M224.5,703.96v-34.02h9.3v34.02H224.5z"/>
			<path class="st0" d="M260.15,704.71c-3.71,0-7.04-0.78-9.97-2.34c-2.94-1.56-5.25-3.7-6.94-6.41c-1.69-2.71-2.54-5.71-2.54-9
				c0-3.33,0.86-6.34,2.57-9c1.71-2.67,4.03-4.79,6.94-6.38c2.91-1.58,6.2-2.38,9.86-2.38c2.91,0,5.51,0.51,7.79,1.53
				c2.28,1.02,4.07,2.45,5.39,4.28l-1.41,1.69v-20.07h9.23v47.34h-8.74v-6.57l0.99,1.63c-1.32,1.88-3.15,3.29-5.49,4.25
				C265.48,704.23,262.92,704.71,260.15,704.71z M261.14,697.2c2.07,0,3.91-0.44,5.53-1.31c1.62-0.88,2.89-2.08,3.8-3.63
				c0.92-1.54,1.38-3.31,1.38-5.32c0-1.96-0.46-3.71-1.38-5.25c-0.92-1.54-2.18-2.75-3.8-3.63c-1.62-0.88-3.46-1.31-5.53-1.31
				c-2.07,0-3.92,0.44-5.57,1.31c-1.64,0.88-2.92,2.08-3.84,3.63c-0.91,1.54-1.37,3.29-1.37,5.25c0,2,0.46,3.77,1.37,5.32
				c0.92,1.54,2.2,2.75,3.84,3.63C257.22,696.76,259.07,697.2,261.14,697.2z"/>
			<path class="st0" d="M289.6,666.12v-8.75h9.3v8.75H289.6z M289.6,703.96v-34.02h9.3v34.02H289.6z"/>
			<path class="st0" d="M320.67,703.96v-46.59h9.23l19.66,23.7h-4.37l19.23-23.7h9.16v46.59h-9.65v-36.9l3.73,0.81l-19.94,23.58
				h-1.13l-19.44-23.58l3.17-0.81v36.9H320.67z"/>
			<path class="st0" d="M394.5,704.71c-2.68,0-5.01-0.4-7.01-1.19c-2-0.79-3.54-1.93-4.61-3.41c-1.08-1.48-1.62-3.2-1.62-5.16
				c0-1.88,0.48-3.55,1.44-5.03c0.96-1.48,2.43-2.72,4.4-3.72c1.97-1,4.46-1.71,7.47-2.13l12.47-1.81v6.25l-10.71,1.69
				c-1.83,0.29-3.19,0.8-4.09,1.53c-0.89,0.73-1.34,1.7-1.34,2.91c0,1.17,0.5,2.09,1.51,2.78c1.01,0.69,2.26,1.03,3.77,1.03
				c1.93,0,3.63-0.36,5.11-1.09c1.48-0.73,2.62-1.74,3.42-3.03c0.8-1.29,1.2-2.69,1.2-4.19v-8.82c0-1.46-0.63-2.68-1.9-3.66
				c-1.27-0.98-2.96-1.47-5.07-1.47c-1.97,0-3.72,0.48-5.25,1.44c-1.53,0.96-2.64,2.19-3.35,3.69l-7.54-3.25
				c0.75-1.79,1.94-3.35,3.56-4.66c1.62-1.31,3.53-2.34,5.74-3.1c2.21-0.75,4.6-1.12,7.19-1.12c3.15,0,5.92,0.51,8.31,1.53
				c2.4,1.02,4.26,2.45,5.6,4.28c1.34,1.83,2.01,3.94,2.01,6.32v22.64h-8.74v-5.82l1.97-0.06c-0.99,1.42-2.17,2.63-3.56,3.63
				c-1.39,1-2.94,1.75-4.65,2.25C398.52,704.46,396.61,704.71,394.5,704.71z"/>
			<path class="st0" d="M423.66,703.96v-34.02h8.74v6.69l-0.71-1.19c0.89-2.04,2.36-3.6,4.4-4.66c2.04-1.06,4.43-1.59,7.15-1.59
				c2.82,0,5.32,0.54,7.5,1.62c2.18,1.08,3.89,2.6,5.11,4.53c1.22,1.94,1.83,4.18,1.83,6.72v21.89h-9.23v-19.95
				c0-1.5-0.33-2.79-0.99-3.88c-0.66-1.08-1.57-1.92-2.75-2.5s-2.51-0.88-4.02-0.88s-2.84,0.29-4.02,0.88s-2.09,1.42-2.75,2.5
				c-0.66,1.08-0.99,2.38-0.99,3.88v19.95H423.66z"/>
			<path class="st0" d="M480.09,704.71c-4.09,0-7.64-0.86-10.67-2.59c-3.03-1.73-5.13-4.07-6.3-7.04l6.97-2.94
				c0.99,1.92,2.36,3.42,4.12,4.5c1.76,1.08,3.72,1.63,5.88,1.63c1.64,0,2.96-0.33,3.95-1c0.99-0.67,1.48-1.54,1.48-2.63
				c0-0.67-0.2-1.22-0.6-1.66c-0.4-0.44-0.93-0.81-1.58-1.13c-0.66-0.31-1.41-0.57-2.25-0.78l-6.27-1.56
				c-3.19-0.79-5.62-2.05-7.29-3.78c-1.67-1.73-2.5-3.76-2.5-6.1c0-2.08,0.6-3.91,1.8-5.47c1.2-1.56,2.86-2.78,5-3.66
				c2.14-0.88,4.59-1.31,7.36-1.31c3.62,0,6.81,0.77,9.58,2.31c2.77,1.54,4.74,3.71,5.92,6.5l-7.04,2.94
				c-0.66-1.54-1.76-2.76-3.31-3.66c-1.55-0.9-3.29-1.34-5.21-1.34c-1.55,0-2.77,0.3-3.66,0.91c-0.89,0.6-1.34,1.43-1.34,2.47
				c0,0.58,0.19,1.11,0.56,1.56c0.38,0.46,0.9,0.83,1.58,1.13c0.68,0.29,1.47,0.56,2.36,0.81l6.13,1.63
				c3.15,0.83,5.58,2.08,7.29,3.75c1.71,1.67,2.57,3.71,2.57,6.13c0,2.04-0.61,3.85-1.83,5.41c-1.22,1.56-2.91,2.78-5.07,3.66
				C485.54,704.27,483,704.71,480.09,704.71z"/>
			<path class="st0" d="M520.39,704.71c-3.71,0-7.1-0.77-10.18-2.31c-3.08-1.54-5.53-3.65-7.36-6.32c-1.83-2.67-2.75-5.71-2.75-9.13
				c0-3.42,0.92-6.46,2.75-9.13c1.83-2.67,4.27-4.77,7.33-6.32c3.05-1.54,6.46-2.31,10.22-2.31c3.8,0,7.23,0.77,10.29,2.31
				c3.05,1.54,5.48,3.64,7.29,6.29c1.81,2.65,2.71,5.7,2.71,9.16c0,3.42-0.92,6.46-2.75,9.13c-1.83,2.67-4.27,4.77-7.33,6.32
				C527.55,703.94,524.15,704.71,520.39,704.71z M520.39,697.2c2.11,0,3.96-0.44,5.53-1.31c1.57-0.88,2.82-2.09,3.73-3.66
				c0.92-1.56,1.37-3.32,1.37-5.28c0-1.96-0.46-3.71-1.37-5.25c-0.92-1.54-2.16-2.75-3.73-3.63c-1.57-0.88-3.42-1.31-5.53-1.31
				c-2.07,0-3.9,0.44-5.5,1.31c-1.6,0.88-2.85,2.08-3.77,3.63c-0.92,1.54-1.37,3.29-1.37,5.25c0,1.96,0.46,3.72,1.37,5.28
				c0.92,1.56,2.17,2.78,3.77,3.66C516.49,696.76,518.32,697.2,520.39,697.2z"/>
			<path class="st0" d="M561.32,704.71c-3.01,0-5.59-0.58-7.75-1.75c-2.16-1.17-3.83-2.79-5-4.88s-1.76-4.52-1.76-7.32v-20.82h9.3
				v20.14c0,1.42,0.32,2.66,0.95,3.72c0.63,1.06,1.55,1.9,2.75,2.5c1.2,0.61,2.55,0.91,4.05,0.91c1.5,0,2.84-0.3,4.02-0.91
				c1.17-0.6,2.09-1.45,2.75-2.53c0.66-1.08,0.99-2.38,0.99-3.88v-19.95h9.23v34.02h-8.74v-6.69l0.71,1.19
				c-0.89,2.08-2.35,3.65-4.37,4.69C566.42,704.18,564.04,704.71,561.32,704.71z"/>
			<path class="st0" d="M589.36,703.96v-34.02h8.74v7.57l-0.71-1.12c0.89-2.54,2.29-4.32,4.19-5.32c1.9-1,4.19-1.5,6.87-1.5h2.25
				v7.32h-3.31c-2.63,0-4.74,0.71-6.34,2.13c-1.6,1.42-2.4,3.42-2.4,6v18.95H589.36z"/>
		</g>
	</g>
</g>
</svg>
